<svg width="47" height="45" viewBox="0 0 47 45" fill="none" xmlns="http://www.w3.org/2000/svg">
<path d="M22.8545 1.66602C23.9408 1.69353 25.0071 1.80118 26.0479 1.9834L22.3711 5.65918C22.3464 5.65908 22.3216 5.65918 22.2969 5.65918C12.5769 5.65929 4.69738 13.5388 4.69727 23.2588C4.69733 32.9788 12.5769 40.8583 22.2969 40.8584C31.4573 40.8584 38.9811 33.8598 39.8174 24.918L43.7744 20.9609C43.8543 21.716 43.8965 22.4826 43.8965 23.2588L43.8896 23.8164C43.5939 35.488 34.0397 44.8584 22.2969 44.8584L21.7393 44.8516C10.2531 44.5604 0.995118 35.3026 0.704102 23.8164L0.697266 23.2588C0.69738 11.3297 10.3678 1.65929 22.2969 1.65918L22.8545 1.66602Z" fill="black"/>
<path d="M28.132 3.68592C30.0378 1.78009 33.1277 1.78009 35.0336 3.68592L43.2024 11.8548C45.1083 13.7606 45.1083 16.8506 43.2024 18.7564V18.7564C42.8848 19.074 42.3698 19.074 42.0522 18.7564L28.132 4.83619C27.8143 4.51855 27.8143 4.00355 28.132 3.68592V3.68592Z" fill="#030303"/>
</svg>
